<svg width="43" height="20" viewBox="0 0 43 20" fill="none" xmlns="http://www.w3.org/2000/svg">
<path d="M8.98438 5.76074C9.11328 5.76074 9.33301 5.78125 9.64355 5.82227C9.9541 5.86328 10.2939 5.98047 10.6631 6.17383C11.0381 6.36133 11.3779 6.6748 11.6826 7.11426C11.665 7.13184 11.5801 7.19629 11.4277 7.30762C11.2754 7.41309 11.1055 7.57129 10.918 7.78223C10.7305 7.9873 10.5664 8.25098 10.4258 8.57324C10.2852 8.88965 10.2148 9.26758 10.2148 9.70703C10.2148 10.2109 10.3027 10.6387 10.4785 10.9902C10.6602 11.3418 10.8682 11.626 11.1025 11.8428C11.3428 12.0537 11.5537 12.209 11.7354 12.3086C11.9229 12.4082 12.0225 12.4609 12.0342 12.4668C12.0283 12.4902 11.9521 12.6982 11.8057 13.0908C11.665 13.4834 11.4307 13.9199 11.1025 14.4004C10.8154 14.8164 10.5049 15.2002 10.1709 15.5518C9.84277 15.9033 9.44727 16.0791 8.98438 16.0791C8.67383 16.0791 8.41895 16.0352 8.21973 15.9473C8.02051 15.8535 7.81543 15.7627 7.60449 15.6748C7.39355 15.5811 7.10938 15.5342 6.75195 15.5342C6.40625 15.5342 6.11621 15.5811 5.88184 15.6748C5.65332 15.7686 5.43359 15.8623 5.22266 15.9561C5.01758 16.0498 4.77441 16.0967 4.49316 16.0967C4.06543 16.0967 3.69043 15.9268 3.36816 15.5869C3.0459 15.2471 2.71484 14.8398 2.375 14.3652C1.98242 13.8027 1.64551 13.1172 1.36426 12.3086C1.08887 11.4941 0.951172 10.6738 0.951172 9.84766C0.951172 8.96289 1.11816 8.22168 1.45215 7.62402C1.78613 7.02051 2.21387 6.56641 2.73535 6.26172C3.2627 5.95117 3.80762 5.7959 4.37012 5.7959C4.66895 5.7959 4.9502 5.8457 5.21387 5.94531C5.47754 6.03906 5.72363 6.13574 5.95215 6.23535C6.18652 6.33496 6.39746 6.38477 6.58496 6.38477C6.7666 6.38477 6.97754 6.33203 7.21777 6.22656C7.45801 6.12109 7.72754 6.01855 8.02637 5.91895C8.3252 5.81348 8.64453 5.76074 8.98438 5.76074ZM8.50098 4.64453C8.27246 4.91992 7.98535 5.15137 7.63965 5.33887C7.29395 5.52051 6.96582 5.61133 6.65527 5.61133C6.59082 5.61133 6.5293 5.60547 6.4707 5.59375C6.46484 5.57617 6.45898 5.54395 6.45312 5.49707C6.44727 5.4502 6.44434 5.40039 6.44434 5.34766C6.44434 4.99609 6.52051 4.65625 6.67285 4.32812C6.8252 3.99414 6.99805 3.71875 7.19141 3.50195C7.4375 3.20898 7.74805 2.96582 8.12305 2.77246C8.49805 2.5791 8.85547 2.47656 9.19531 2.46484C9.21289 2.54102 9.22168 2.63184 9.22168 2.7373C9.22168 3.08887 9.1543 3.43164 9.01953 3.76562C8.88477 4.09375 8.71191 4.38672 8.50098 4.64453ZM15.7971 16V4.36364H20.1608C21.0547 4.36364 21.8047 4.5303 22.4108 4.86364C23.0206 5.19697 23.4809 5.6553 23.7915 6.23864C24.1059 6.81818 24.2631 7.47727 24.2631 8.21591C24.2631 8.96212 24.1059 9.625 23.7915 10.2045C23.4771 10.7841 23.0131 11.2405 22.3994 11.5739C21.7858 11.9034 21.0301 12.0682 20.1324 12.0682H17.2403V10.3352H19.8483C20.371 10.3352 20.799 10.2443 21.1324 10.0625C21.4657 9.88068 21.7119 9.63068 21.871 9.3125C22.0339 8.99432 22.1153 8.62879 22.1153 8.21591C22.1153 7.80303 22.0339 7.43939 21.871 7.125C21.7119 6.81061 21.4638 6.56629 21.1267 6.39205C20.7934 6.21402 20.3634 6.125 19.8369 6.125H17.9051V16H15.7971ZM28.3582 16.1761C27.8052 16.1761 27.3071 16.0777 26.8639 15.8807C26.4245 15.6799 26.076 15.3845 25.8184 14.9943C25.5647 14.6042 25.4378 14.1231 25.4378 13.5511C25.4378 13.0587 25.5287 12.6515 25.7105 12.3295C25.8923 12.0076 26.1404 11.75 26.4548 11.5568C26.7692 11.3636 27.1234 11.2178 27.5173 11.1193C27.915 11.017 28.326 10.9432 28.7503 10.8977C29.2616 10.8447 29.6764 10.7973 29.9946 10.7557C30.3128 10.7102 30.5438 10.642 30.6878 10.5511C30.8355 10.4564 30.9094 10.3106 30.9094 10.1136V10.0795C30.9094 9.65152 30.7825 9.32008 30.5287 9.08523C30.2749 8.85038 29.9094 8.73295 29.4321 8.73295C28.9283 8.73295 28.5287 8.8428 28.2332 9.0625C27.9416 9.2822 27.7446 9.54167 27.6423 9.84091L25.7219 9.56818C25.8734 9.03788 26.1234 8.5947 26.4719 8.23864C26.8203 7.87879 27.2465 7.60985 27.7503 7.43182C28.2541 7.25 28.8109 7.15909 29.4207 7.15909C29.8412 7.15909 30.2597 7.20833 30.6764 7.30682C31.0931 7.4053 31.4738 7.56818 31.8184 7.79545C32.1631 8.01894 32.4397 8.32386 32.648 8.71023C32.8601 9.09659 32.9662 9.57955 32.9662 10.1591V16H30.9889V14.8011H30.9207C30.7957 15.0436 30.6196 15.2708 30.3923 15.483C30.1688 15.6913 29.8866 15.8598 29.5457 15.9886C29.2086 16.1136 28.8128 16.1761 28.3582 16.1761ZM28.8923 14.6648C29.3052 14.6648 29.6631 14.5833 29.9662 14.4205C30.2692 14.2538 30.5022 14.0341 30.665 13.7614C30.8317 13.4886 30.915 13.1913 30.915 12.8693V11.8409C30.8506 11.8939 30.7408 11.9432 30.5855 11.9886C30.434 12.0341 30.2635 12.0739 30.0741 12.108C29.8847 12.142 29.6972 12.1723 29.5116 12.1989C29.326 12.2254 29.165 12.2481 29.0287 12.267C28.7219 12.3087 28.4472 12.3769 28.2048 12.4716C27.9624 12.5663 27.7711 12.6989 27.6309 12.8693C27.4908 13.036 27.4207 13.2519 27.4207 13.517C27.4207 13.8958 27.559 14.1818 27.8355 14.375C28.112 14.5682 28.4643 14.6648 28.8923 14.6648ZM36.0003 19.2727C35.72 19.2727 35.4605 19.25 35.2219 19.2045C34.987 19.1629 34.7995 19.1136 34.6594 19.0568L35.1366 17.4545C35.4359 17.5417 35.7029 17.5833 35.9378 17.5795C36.1726 17.5758 36.3791 17.5019 36.5571 17.358C36.7389 17.2178 36.8923 16.983 37.0173 16.6534L37.1934 16.1818L34.0287 7.27273H36.2105L38.2219 13.8636H38.3128L40.3298 7.27273H42.5173L39.023 17.0568C38.8601 17.5189 38.6442 17.9148 38.3753 18.2443C38.1063 18.5777 37.7768 18.8314 37.3866 19.0057C37.0003 19.1837 36.5381 19.2727 36.0003 19.2727Z" fill="white" style="fill:white;fill-opacity:1;"/>
</svg>
