<svg width="68" height="20" viewBox="0 0 68 20" fill="none" xmlns="http://www.w3.org/2000/svg">
<path fill-rule="evenodd" clip-rule="evenodd" d="M17.3252 7.10374C16.7828 5.96644 15.7545 5.23178 14.205 5.23178C13.7294 5.24007 13.2621 5.35745 12.8391 5.57484C12.416 5.79224 12.0486 6.10385 11.7651 6.48564L11.7086 6.55451V2.09713C11.7086 2.07137 11.6983 2.04667 11.6801 2.02845C11.6619 2.01024 11.6372 2 11.6114 2H9.42057C9.39511 2.00046 9.37084 2.0109 9.353 2.02907C9.33515 2.04723 9.32516 2.07167 9.32516 2.09713V14.883C9.32516 14.9083 9.33522 14.9325 9.35311 14.9504C9.371 14.9683 9.39527 14.9783 9.42057 14.9783H11.7669C11.7923 14.9783 11.8168 14.9683 11.835 14.9505C11.8531 14.9327 11.8636 14.9084 11.864 14.883V9.43132C11.864 8.37173 12.5708 7.62118 13.7015 7.62118C14.9383 7.62118 15.251 8.63839 15.251 9.67503V14.883C15.251 14.9083 15.261 14.9325 15.2789 14.9504C15.2968 14.9683 15.3211 14.9783 15.3464 14.9783H17.6874C17.7129 14.9783 17.7373 14.9683 17.7555 14.9505C17.7737 14.9327 17.7841 14.9084 17.7846 14.883V9.36422C17.7846 9.17525 17.7846 8.98982 17.7598 8.80969C17.7196 8.2194 17.5724 7.64135 17.3252 7.10374ZM32.5692 6.66224C33.2035 5.87814 34.1876 5.22825 35.3625 5.22825C38.0003 5.22825 40.0781 7.41103 40.0763 10.1042C40.0763 12.9103 37.9879 14.9872 35.4826 14.9872C34.1505 14.9872 33.131 14.3055 32.7582 13.7368H32.7229V17.8587C32.7229 17.8835 32.713 17.9073 32.6955 17.9249C32.6779 17.9424 32.6541 17.9523 32.6293 17.9523H30.2812C30.2562 17.9523 30.2322 17.9425 30.2144 17.925C30.1965 17.9075 30.1863 17.8837 30.1858 17.8587V5.32008C30.1858 5.29479 30.1958 5.27053 30.2137 5.25265C30.2316 5.23476 30.2559 5.22472 30.2812 5.22472H32.4756C32.5005 5.22518 32.5244 5.23543 32.5419 5.25327C32.5594 5.2711 32.5692 5.29509 32.5692 5.32008V6.66224ZM35.1605 12.5975C34.9664 12.6036 34.7711 12.5869 34.5789 12.5471C34.0939 12.4468 33.6499 12.2041 33.3036 11.8502C33.0908 11.6327 32.9208 11.3792 32.8007 11.1031C32.6038 10.6508 32.5458 10.1503 32.6341 9.66498C32.7226 9.17845 32.9542 8.72932 33.2992 8.37491C33.6442 8.0205 34.0871 7.77689 34.5713 7.67516C34.7646 7.63453 34.9611 7.61727 35.1566 7.62302C35.4755 7.62677 35.7906 7.69283 36.0842 7.81754C36.3813 7.94372 36.6504 8.12745 36.8761 8.35811C37.1018 8.58878 37.2795 8.86183 37.3991 9.1615C37.5187 9.46118 37.5777 9.78155 37.5728 10.1041L37.5728 10.1089C37.5773 10.4305 37.5185 10.75 37.3997 11.049C37.2804 11.3495 37.1028 11.6234 36.8773 11.8551C36.6517 12.0868 36.3826 12.2717 36.0853 12.3991C35.7928 12.5246 35.4787 12.5919 35.1605 12.5975ZM3.97534 8.60482C4.41527 8.71784 5.60963 8.99863 5.60963 8.99863C7.98596 9.60614 8.14674 11.1991 8.1432 11.8984C8.1432 13.3871 6.86582 14.9765 4.03895 14.9765C2.14141 14.9765 0.10607 13.841 6.20336e-05 11.7342C-0.000412626 11.7207 0.00184052 11.7072 0.00668858 11.6946C0.0115366 11.6819 0.0188809 11.6704 0.0282801 11.6607C0.0376793 11.651 0.0489422 11.6432 0.0613967 11.638C0.0738512 11.6327 0.0872401 11.63 0.100768 11.63L2.4082 11.6194C2.4329 11.6192 2.4568 11.6281 2.47537 11.6444C2.49394 11.6606 2.50587 11.6832 2.50891 11.7077C2.56721 12.377 3.28099 12.7496 4.2863 12.7496C4.98065 12.7496 5.68737 12.4105 5.68737 11.9231C5.68737 11.5028 5.34637 11.2362 4.71386 11.0596C4.18736 10.913 3.58488 10.7452 3.14142 10.6163C0.613138 9.87457 0.291582 8.80791 0.291582 7.6706C0.291582 6.11299 1.85873 4.70019 4.00184 4.70019C5.80927 4.70019 7.76865 5.49842 7.91176 7.73065C7.91273 7.74421 7.91089 7.75784 7.90635 7.77066C7.90182 7.78349 7.89468 7.79524 7.8854 7.80519C7.87611 7.81513 7.86487 7.82306 7.85238 7.82846C7.83989 7.83387 7.82643 7.83664 7.81282 7.83661L5.50008 7.84544C5.47484 7.84553 5.45047 7.83615 5.43182 7.81914C5.41317 7.80213 5.40159 7.77874 5.39938 7.7536C5.34461 7.05604 4.64496 6.90416 4.01598 6.90416C3.387 6.90416 2.76686 7.08959 2.76686 7.6706C2.76686 8.25162 3.53541 8.49179 3.97534 8.60482ZM23.2369 4.67721C21.0507 4.67721 19.9589 5.41875 19.0831 6.0135L19.0797 6.01584L19.0532 6.0335C19.008 6.06443 18.9762 6.11126 18.964 6.16463C18.9519 6.218 18.9604 6.27397 18.9878 6.32136L19.8535 7.81186C19.8697 7.83975 19.8919 7.86371 19.9185 7.88203C19.9451 7.90035 19.9754 7.91257 20.0072 7.91782C20.0384 7.92344 20.0704 7.92208 20.1009 7.91383C20.1315 7.90559 20.1598 7.89066 20.1839 7.87014L20.2528 7.81363C20.7033 7.4357 21.426 6.93063 23.1751 6.79288C24.1486 6.71518 24.9896 6.96948 25.6097 7.54873C26.2917 8.17742 26.6998 9.19287 26.6998 10.2648C26.6998 12.2375 25.5373 13.4772 23.6698 13.5019C22.1309 13.4931 21.0973 12.6913 21.0973 11.5063C21.0973 10.8776 21.3818 10.4679 21.9366 10.0582C21.9789 10.0279 22.0089 9.98335 22.0209 9.9327C22.0329 9.88206 22.0262 9.82878 22.0019 9.78272L21.2246 8.3134C21.2102 8.28711 21.1908 8.2639 21.1674 8.24511C21.1441 8.22633 21.1173 8.21233 21.0885 8.20391C21.0591 8.19516 21.0282 8.19267 20.9977 8.19663C20.9673 8.20058 20.938 8.21089 20.9118 8.22687C20.039 8.74431 18.9684 9.69088 19.0267 11.5099C19.0973 13.8251 21.0231 15.5928 23.5267 15.6653H23.6521H23.8235C26.7988 15.5681 28.9472 13.3606 28.9472 10.3673C28.9472 7.61937 26.9437 4.67721 23.2369 4.67721ZM64.9527 2.03198H44.919C43.5363 2.03198 42.4155 3.15235 42.4155 4.5344V15.4977C42.4155 16.8798 43.5363 18.0001 44.919 18.0001H64.9527C66.3353 18.0001 67.4562 16.8798 67.4562 15.4977V4.5344C67.4562 3.15235 66.3353 2.03198 64.9527 2.03198ZM52.2812 7.78907C52.2812 9.49679 51.0851 10.7153 49.4137 10.7153H47.8377C47.8026 10.7153 47.7689 10.7293 47.744 10.7541C47.7192 10.779 47.7052 10.8127 47.7052 10.8478V13.0906C47.7052 13.1257 47.6912 13.1594 47.6664 13.1843C47.6415 13.2091 47.6078 13.2231 47.5727 13.2231H46.4631C46.4281 13.2226 46.3947 13.2085 46.3699 13.1838C46.3452 13.159 46.3311 13.1256 46.3306 13.0906V4.99703C46.3306 4.9619 46.3446 4.92821 46.3694 4.90337C46.3943 4.87853 46.428 4.86458 46.4631 4.86458H49.4137C51.0851 4.86458 52.2812 6.09018 52.2812 7.78907ZM50.9066 7.78907C50.9066 6.81071 50.237 6.09372 49.3289 6.09372H47.8377C47.8027 6.09417 47.7693 6.10827 47.7445 6.13302C47.7198 6.15776 47.7056 6.19118 47.7052 6.22617V9.35375C47.7057 9.38857 47.7198 9.42181 47.7446 9.44627C47.7694 9.47072 47.8029 9.48444 47.8377 9.48443H49.3289C50.237 9.48443 50.9066 8.7692 50.9066 7.78907ZM52.7653 10.9127C52.6506 11.1483 52.5965 11.4089 52.608 11.6707C52.608 12.7444 53.3977 13.366 54.5868 13.3625C55.3978 13.3625 55.9066 13.1153 56.2193 12.7744C56.2324 12.7576 56.2506 12.7455 56.2711 12.7398C56.2917 12.7342 56.3135 12.7353 56.3333 12.743C56.3532 12.7508 56.37 12.7647 56.3813 12.7828C56.3926 12.8009 56.3977 12.8221 56.396 12.8433V13.0852C56.3958 13.1028 56.399 13.1202 56.4056 13.1365C56.4121 13.1528 56.4218 13.1676 56.4342 13.1801C56.4465 13.1925 56.4612 13.2025 56.4774 13.2092C56.4936 13.216 56.5109 13.2195 56.5285 13.2195H57.5762C57.5938 13.2195 57.6111 13.216 57.6273 13.2092C57.6435 13.2025 57.6582 13.1925 57.6705 13.1801C57.6829 13.1676 57.6926 13.1528 57.6991 13.1365C57.7057 13.1202 57.709 13.1028 57.7087 13.0852V9.83935C57.7087 8.31176 57.0886 7.51176 55.3677 7.51176C53.7476 7.51176 52.9879 8.20933 52.8324 9.12765C52.8295 9.14651 52.8309 9.16577 52.8363 9.18407C52.8417 9.20237 52.851 9.21927 52.8636 9.23358C52.8763 9.24788 52.8919 9.25925 52.9094 9.26689C52.9268 9.27452 52.9458 9.27823 52.9649 9.27776H54.002C54.0304 9.27887 54.0584 9.27043 54.0815 9.25378C54.1045 9.23714 54.1213 9.21324 54.1292 9.18593C54.2281 8.79917 54.6504 8.56253 55.32 8.56253C55.9896 8.56253 56.4066 8.82566 56.4066 9.44553V9.75634L55.3554 9.79166C54.3642 9.83051 53.6963 9.99828 53.2652 10.3215C53.0519 10.4739 52.8801 10.6771 52.7653 10.9127ZM56.4066 10.7135V10.9643V10.966C56.4066 11.8367 55.8695 12.3276 54.9614 12.3276C54.2935 12.3276 53.9101 12.0751 53.9101 11.6212C53.9101 11.1197 54.3288 10.8212 55.0462 10.7842L56.4066 10.7135ZM58.7618 15.6742V14.7294C58.7617 14.7097 58.766 14.6901 58.7743 14.6722C58.7827 14.6543 58.7949 14.6384 58.8101 14.6258C58.8253 14.6131 58.8431 14.604 58.8622 14.599C58.8813 14.594 58.9013 14.5933 58.9208 14.597C59.0809 14.6274 59.2436 14.6427 59.4066 14.6429C59.6876 14.657 59.9652 14.5764 60.1949 14.4141C60.4245 14.2517 60.5931 14.017 60.6734 13.7475L60.7423 13.5303C60.753 13.5013 60.753 13.4693 60.7423 13.4403L58.5621 7.84205C58.5554 7.82203 58.5536 7.80072 58.5567 7.77986C58.5598 7.75899 58.5678 7.73915 58.58 7.72195C58.5922 7.70475 58.6084 7.69066 58.627 7.68085C58.6457 7.67103 58.6665 7.66575 58.6876 7.66545H59.7476C59.7748 7.6657 59.8013 7.67408 59.8236 7.6895C59.846 7.70493 59.8632 7.72669 59.8731 7.75198L61.3536 11.7007C61.3634 11.7266 61.3808 11.7488 61.4036 11.7645C61.4263 11.7801 61.4532 11.7885 61.4809 11.7885C61.5085 11.7885 61.5354 11.7801 61.5581 11.7645C61.5809 11.7488 61.5983 11.7266 61.6081 11.7007L62.8925 7.76258C62.9012 7.73572 62.9182 7.71233 62.9411 7.69582C62.9639 7.6793 62.9915 7.67051 63.0197 7.67074H64.1063C64.1274 7.67105 64.1481 7.67633 64.1668 7.68614C64.1855 7.69596 64.2016 7.71004 64.2138 7.72725C64.2261 7.74445 64.234 7.76429 64.2372 7.78516C64.2403 7.80602 64.2384 7.82733 64.2318 7.84734L61.8996 14.0654C61.3695 15.51 60.442 15.8809 59.4261 15.8809C59.2347 15.8855 59.0436 15.8623 58.8589 15.812C58.8296 15.8033 58.8041 15.785 58.7864 15.76C58.7688 15.735 58.7601 15.7048 58.7618 15.6742Z" fill="#5A31F4" style="fill:#5A31F4;fill:color(display-p3 0.3529 0.1922 0.9569);fill-opacity:1;"/>
</svg>
