<svg width="10" height="12" viewBox="0 0 10 12" fill="none" xmlns="http://www.w3.org/2000/svg">
<path d="M8.84375 4.5H7.25V2.625C7.25 2.02826 7.01295 1.45597 6.59099 1.03401C6.16903 0.612053 5.59674 0.375 5 0.375C4.40326 0.375 3.83097 0.612053 3.40901 1.03401C2.98705 1.45597 2.75 2.02826 2.75 2.625V4.5H1.15625C1.08166 4.5 1.01012 4.52963 0.957376 4.58238C0.904632 4.63512 0.875 4.70666 0.875 4.78125V11.3438C0.875 11.4183 0.904632 11.4899 0.957376 11.5426C1.01012 11.5954 1.08166 11.625 1.15625 11.625H8.84375C8.91834 11.625 8.98988 11.5954 9.04262 11.5426C9.09537 11.4899 9.125 11.4183 9.125 11.3438V4.78125C9.125 4.70666 9.09537 4.63512 9.04262 4.58238C8.98988 4.52963 8.91834 4.5 8.84375 4.5ZM6.35938 4.5H3.64062V2.60742C3.64062 2.24689 3.78384 1.90113 4.03878 1.6462C4.29371 1.39127 4.63947 1.24805 5 1.24805C5.36053 1.24805 5.70629 1.39127 5.96122 1.6462C6.21616 1.90113 6.35938 2.24689 6.35938 2.60742V4.5Z" fill="#686C74" style="fill:#686C74;fill:color(display-p3 0.4078 0.4235 0.4549);fill-opacity:1;"/>
</svg>
