<svg width="24" height="16" viewBox="0 0 24 16" fill="none" xmlns="http://www.w3.org/2000/svg">
<g clip-path="url(#clip0_617_16075)">
<path d="M22.2099 16L22.2122 16C23.1876 16.0082 23.9878 15.2274 24 14.2543L24 1.7563C23.9961 1.28569 23.8048 0.83617 23.4686 0.506802C23.1333 0.178269 22.6814 -0.00385122 22.2099 7.07757e-05L1.78788 6.17754e-05C1.31855 -0.00385122 0.866627 0.178269 0.531341 0.506802C0.195204 0.83617 0.00391149 1.28569 0 1.75426L0 14.2438C0.00391966 14.7144 0.195212 15.1639 0.531349 15.4933C0.866635 15.8218 1.31856 16.0039 1.79006 16L22.2099 16Z" fill="white" style="fill:white;fill-opacity:1;"/>
<path d="M22.2089 16.5L22.2078 15.9999M22.2099 16L22.2122 16C23.1876 16.0082 23.9878 15.2274 24 14.2543L24 1.7563C23.9961 1.28569 23.8048 0.83617 23.4686 0.506802C23.1333 0.178269 22.6814 -0.00385122 22.2099 7.07757e-05L1.78788 6.17754e-05C1.31855 -0.00385122 0.866627 0.178269 0.531341 0.506802C0.195204 0.83617 0.00391149 1.28569 0 1.75426L0 14.2438C0.00391966 14.7144 0.195212 15.1639 0.531349 15.4933C0.866635 15.8218 1.31856 16.0039 1.79006 16L22.2099 16Z" stroke="black" stroke-opacity="0.2" style="stroke:black;stroke-opacity:0.2;" stroke-width="0.5"/>
<path fill-rule="evenodd" clip-rule="evenodd" d="M4.67831 5.75208C4.92204 5.67267 5.17683 5.63244 5.43317 5.63289C6.58534 5.63289 7.54708 6.4343 7.7673 7.50019L9.3999 7.17384C9.02531 5.36245 7.39213 4 5.43346 4C4.98451 4 4.55373 4.07151 4.1499 4.20376L4.67831 5.75208Z" fill="#FFCA05" style="fill:#FFCA05;fill:color(display-p3 1.0000 0.7922 0.0196);fill-opacity:1;"/>
<path fill-rule="evenodd" clip-rule="evenodd" d="M2.78262 11.0001L3.90016 9.76473C3.40126 9.33252 3.08655 8.70196 3.08655 7.99959C3.08655 7.29723 3.4007 6.66694 3.89931 6.23531L2.78205 5C1.93467 5.73386 1.40002 6.80571 1.40002 7.99959C1.40002 9.19375 1.93467 10.2659 2.78262 11.0001Z" fill="#00A4DF" style="fill:#00A4DF;fill:color(display-p3 0.0000 0.6431 0.8745);fill-opacity:1;"/>
<path fill-rule="evenodd" clip-rule="evenodd" d="M7.76758 8.5C7.54651 9.56561 6.5859 10.3664 5.43488 10.3664C5.17809 10.3669 4.92287 10.3264 4.67888 10.2464L4.1499 11.7964C4.55344 11.9286 4.98536 11.9999 5.43459 11.9999C7.391 11.9999 9.02389 10.6385 9.3999 8.82834L7.76758 8.5Z" fill="#EE4123" style="fill:#EE4123;fill:color(display-p3 0.9333 0.2549 0.1373);fill-opacity:1;"/>
<path fill-rule="evenodd" clip-rule="evenodd" d="M14.0217 9.31379L14.0205 9.31493L13.9743 9.28371C13.8409 9.50052 13.6337 9.67647 13.3712 9.79055C12.8726 10.0082 12.4106 9.95231 12.0789 9.66001L12.0485 9.70655C12.048 9.70598 12.048 9.7057 12.0474 9.7057L11.4815 10.5559C11.6223 10.6541 11.773 10.7371 11.9313 10.8033C12.5565 11.0644 13.1959 11.0523 13.8259 10.777C14.2819 10.5787 14.6392 10.2762 14.8838 9.89271L14.0217 9.31379ZM12.2551 7.21578C11.7287 7.44281 11.4571 7.93914 11.513 8.5209L13.7436 7.5566C13.3599 7.10369 12.861 6.95385 12.2551 7.21578ZM10.7743 9.80616C10.7111 9.70077 10.6546 9.59149 10.6052 9.47896C10.3478 8.87875 10.3356 8.25783 10.5527 7.6616C10.7916 7.00777 11.248 6.50717 11.838 6.25233C12.5795 5.93166 13.3993 5.99494 14.1099 6.41863C14.5614 6.67858 14.8815 7.08041 15.1245 7.64827C15.1557 7.72092 15.1826 7.79867 15.2093 7.86479L10.7743 9.80616ZM16.7593 5V9.72755L17.4912 10.0256L17.0755 11.0001L16.2678 10.6624C16.0865 10.5832 15.963 10.4625 15.8697 10.3263C15.7803 10.1872 15.7136 9.99715 15.7136 9.74032V5H16.7593ZM18.655 8.52317C18.6546 8.71382 18.6949 8.90235 18.7732 9.07618C18.8515 9.25001 18.966 9.40512 19.1091 9.53117L18.3593 10.3728C18.0981 10.1406 17.8892 9.85548 17.7464 9.53641C17.6037 9.21734 17.5303 8.87159 17.5312 8.52204C17.5309 8.17267 17.6048 7.82722 17.748 7.50854C17.8912 7.18986 18.1004 6.90523 18.3619 6.67347L19.1125 7.51432C18.9687 7.64013 18.8535 7.79524 18.7746 7.96924C18.6957 8.14325 18.6549 8.33212 18.655 8.52317ZM19.9888 9.8649C20.6335 9.86547 21.1716 9.40659 21.297 8.79617L22.399 9.02206C22.1691 10.1484 21.1764 10.9955 19.9877 10.9943C19.7223 10.9942 19.4587 10.951 19.2072 10.8663L19.566 9.79566C19.6988 9.83993 19.8412 9.86462 19.9888 9.8649ZM19.9922 6.05425C21.1818 6.0551 22.1734 6.9056 22.4001 8.03336L21.2979 8.25755C21.2374 7.95522 21.0743 7.6831 20.8361 7.48733C20.5979 7.29156 20.2994 7.18419 19.9911 7.18343C19.8472 7.18346 19.7044 7.20665 19.5679 7.2521L19.2126 6.18025C19.464 6.09631 19.7272 6.05376 19.9922 6.05425Z" fill="black" style="fill:black;fill-opacity:1;"/>
</g>
<defs>
<clipPath id="clip0_617_16075">
<rect width="24" height="16" fill="white" style="fill:white;fill-opacity:1;"/>
</clipPath>
</defs>
</svg>
