<svg width="56" height="20" viewBox="0 0 56 20" fill="none" xmlns="http://www.w3.org/2000/svg">
<path d="M29.5376 8.28977H27.4126C27.352 7.94129 27.2403 7.63258 27.0774 7.36364C26.9145 7.09091 26.7119 6.85985 26.4695 6.67045C26.227 6.48106 25.9505 6.33901 25.6399 6.24432C25.3331 6.14583 25.0017 6.09659 24.6456 6.09659C24.013 6.09659 23.4524 6.25568 22.9638 6.57386C22.4751 6.88826 22.0926 7.35038 21.8161 7.96023C21.5395 8.56629 21.4013 9.30682 21.4013 10.1818C21.4013 11.072 21.5395 11.822 21.8161 12.4318C22.0964 13.0379 22.4789 13.4962 22.9638 13.8068C23.4524 14.1136 24.0111 14.267 24.6399 14.267C24.9884 14.267 25.3142 14.2216 25.6172 14.1307C25.924 14.036 26.1986 13.8977 26.4411 13.7159C26.6873 13.5341 26.8937 13.3106 27.0604 13.0455C27.2308 12.7803 27.3482 12.4773 27.4126 12.1364L29.5376 12.1477C29.4581 12.7008 29.2857 13.2197 29.0206 13.7045C28.7592 14.1894 28.4164 14.6174 27.9922 14.9886C27.5679 15.3561 27.0717 15.6439 26.5036 15.8523C25.9354 16.0568 25.3047 16.1591 24.6115 16.1591C23.5888 16.1591 22.6759 15.9223 21.8729 15.4489C21.0698 14.9754 20.4373 14.2917 19.9751 13.3977C19.513 12.5038 19.282 11.4318 19.282 10.1818C19.282 8.92803 19.5149 7.85606 19.9808 6.96591C20.4467 6.07197 21.0812 5.38826 21.8842 4.91477C22.6873 4.44129 23.5964 4.20455 24.6115 4.20455C25.2592 4.20455 25.8615 4.29545 26.4183 4.47727C26.9751 4.65909 27.4714 4.92614 27.907 5.27841C28.3426 5.62689 28.7005 6.05492 28.9808 6.5625C29.2649 7.06629 29.4505 7.64205 29.5376 8.28977ZM33.8885 16.1761C33.3355 16.1761 32.8374 16.0777 32.3942 15.8807C31.9548 15.6799 31.6063 15.3845 31.3487 14.9943C31.0949 14.6042 30.968 14.1231 30.968 13.5511C30.968 13.0587 31.0589 12.6515 31.2408 12.3295C31.4226 12.0076 31.6707 11.75 31.9851 11.5568C32.2995 11.3636 32.6536 11.2178 33.0476 11.1193C33.4453 11.017 33.8563 10.9432 34.2805 10.8977C34.7919 10.8447 35.2067 10.7973 35.5249 10.7557C35.843 10.7102 36.0741 10.642 36.218 10.5511C36.3658 10.4564 36.4396 10.3106 36.4396 10.1136V10.0795C36.4396 9.65152 36.3127 9.32008 36.0589 9.08523C35.8052 8.85038 35.4396 8.73295 34.9624 8.73295C34.4586 8.73295 34.0589 8.8428 33.7635 9.0625C33.4718 9.2822 33.2749 9.54167 33.1726 9.84091L31.2521 9.56818C31.4036 9.03788 31.6536 8.5947 32.0021 8.23864C32.3506 7.87879 32.7768 7.60985 33.2805 7.43182C33.7843 7.25 34.3411 7.15909 34.951 7.15909C35.3714 7.15909 35.79 7.20833 36.2067 7.30682C36.6233 7.4053 37.004 7.56818 37.3487 7.79545C37.6934 8.01894 37.9699 8.32386 38.1783 8.71023C38.3904 9.09659 38.4964 9.57955 38.4964 10.1591V16H36.5192V14.8011H36.451C36.326 15.0436 36.1499 15.2708 35.9226 15.483C35.6991 15.6913 35.4169 15.8598 35.076 15.9886C34.7389 16.1136 34.343 16.1761 33.8885 16.1761ZM34.4226 14.6648C34.8355 14.6648 35.1934 14.5833 35.4964 14.4205C35.7995 14.2538 36.0324 14.0341 36.1953 13.7614C36.362 13.4886 36.4453 13.1913 36.4453 12.8693V11.8409C36.3809 11.8939 36.2711 11.9432 36.1158 11.9886C35.9643 12.0341 35.7938 12.0739 35.6044 12.108C35.415 12.142 35.2275 12.1723 35.0419 12.1989C34.8563 12.2254 34.6953 12.2481 34.5589 12.267C34.2521 12.3087 33.9775 12.3769 33.7351 12.4716C33.4927 12.5663 33.3014 12.6989 33.1612 12.8693C33.0211 13.036 32.951 13.2519 32.951 13.517C32.951 13.8958 33.0893 14.1818 33.3658 14.375C33.6423 14.5682 33.9946 14.6648 34.4226 14.6648ZM40.5646 16V7.27273H42.5589V8.72727H42.6499C42.8089 8.22348 43.0817 7.83523 43.468 7.5625C43.8582 7.28598 44.3033 7.14773 44.8033 7.14773C44.9169 7.14773 45.0438 7.15341 45.1839 7.16477C45.3279 7.17235 45.4472 7.18561 45.5419 7.20455V9.09659C45.4548 9.06629 45.3165 9.03977 45.1271 9.01705C44.9415 8.99053 44.7616 8.97727 44.5874 8.97727C44.2124 8.97727 43.8752 9.05871 43.576 9.22159C43.2805 9.38068 43.0476 9.60227 42.8771 9.88636C42.7067 10.1705 42.6214 10.4981 42.6214 10.8693V16H40.5646ZM49.7876 16.1534C49.102 16.1534 48.4884 15.9773 47.9467 15.625C47.4051 15.2727 46.977 14.7614 46.6626 14.0909C46.3482 13.4205 46.1911 12.6061 46.1911 11.6477C46.1911 10.678 46.3501 9.85985 46.6683 9.19318C46.9903 8.52273 47.424 8.01705 47.9695 7.67614C48.5149 7.33144 49.1229 7.15909 49.7933 7.15909C50.3047 7.15909 50.7251 7.24621 51.0547 7.42045C51.3842 7.59091 51.6456 7.79735 51.8388 8.03977C52.032 8.27841 52.1816 8.50379 52.2876 8.71591H52.3729V4.36364H54.4354V16H52.4126V14.625H52.2876C52.1816 14.8371 52.0282 15.0625 51.8274 15.3011C51.6267 15.536 51.3615 15.7367 51.032 15.9034C50.7024 16.0701 50.2876 16.1534 49.7876 16.1534ZM50.3615 14.4659C50.7971 14.4659 51.1683 14.3485 51.4751 14.1136C51.782 13.875 52.0149 13.5436 52.174 13.1193C52.3331 12.6951 52.4126 12.2008 52.4126 11.6364C52.4126 11.072 52.3331 10.5814 52.174 10.1648C52.0187 9.74811 51.7876 9.42424 51.4808 9.19318C51.1778 8.96212 50.8047 8.84659 50.3615 8.84659C49.9032 8.84659 49.5206 8.96591 49.2138 9.20455C48.907 9.44318 48.6759 9.77273 48.5206 10.1932C48.3653 10.6136 48.2876 11.0947 48.2876 11.6364C48.2876 12.1818 48.3653 12.6686 48.5206 13.0966C48.6797 13.5208 48.9126 13.8561 49.2195 14.1023C49.5301 14.3447 49.9107 14.4659 50.3615 14.4659Z" fill="white" style="fill:white;fill-opacity:1;"/>
<path fill-rule="evenodd" clip-rule="evenodd" d="M0.571429 3.71436H15.4286C15.5801 3.71436 15.7255 3.77456 15.8326 3.88172C15.9398 3.98889 16 4.13423 16 4.28578V6.64293H0V4.28578C0 4.13423 0.0602039 3.98889 0.167368 3.88172C0.274531 3.77456 0.419876 3.71436 0.571429 3.71436ZM0.167368 16.1184C0.0602039 16.0113 0 15.8659 0 15.7144V8.7858H16V15.7144C16 15.8659 15.9398 16.0113 15.8326 16.1184C15.7255 16.2256 15.5801 16.2858 15.4286 16.2858H0.571429C0.419876 16.2858 0.274531 16.2256 0.167368 16.1184ZM2.44083 10.5838C2.38724 10.6373 2.35714 10.71 2.35714 10.7858V13.0715C2.35714 13.1473 2.38724 13.22 2.44083 13.2735C2.49441 13.3271 2.56708 13.3572 2.64286 13.3572H5.92857C6.00435 13.3572 6.07702 13.3271 6.1306 13.2735C6.18418 13.22 6.21429 13.1473 6.21429 13.0715V10.7858C6.21429 10.71 6.18418 10.6373 6.1306 10.5838C6.07702 10.5302 6.00435 10.5001 5.92857 10.5001H2.64286C2.56708 10.5001 2.49441 10.5302 2.44083 10.5838Z" fill="white" style="fill:white;fill-opacity:1;"/>
</svg>
