<svg width="24" height="16" viewBox="0 0 24 16" fill="none" xmlns="http://www.w3.org/2000/svg">
<g clip-path="url(#clip0_617_16082)">
<path d="M22.2099 16H22.2121C23.1875 16.0082 23.9878 15.2273 24 14.2542L24 1.7563C23.9961 1.28569 23.8048 0.836171 23.4687 0.506802C23.1334 0.178269 22.6814 -0.00385117 22.2099 7.08334e-05L1.78789 6.17735e-05C1.31856 -0.00385116 0.866633 0.178269 0.531351 0.506802C0.195214 0.836171 0.00392244 1.28569 1.11394e-05 1.75426L-2.64763e-06 14.2438C0.00391715 14.7144 0.195209 15.1639 0.531345 15.4933C0.866628 15.8218 1.31856 16.0039 1.79006 16H22.2099ZM22.2089 15.9999L22.2078 16.5L22.2099 16L22.2089 15.9999Z" fill="white" style="fill:white;fill-opacity:1;"/>
<path d="M22.2099 16H22.2121C23.1875 16.0082 23.9878 15.2273 24 14.2542L24 1.7563C23.9961 1.28569 23.8048 0.836171 23.4687 0.506802C23.1334 0.178269 22.6814 -0.00385117 22.2099 7.08334e-05L1.78789 6.17735e-05C1.31856 -0.00385116 0.866633 0.178269 0.531351 0.506802C0.195214 0.836171 0.00392244 1.28569 1.11394e-05 1.75426L-2.64763e-06 14.2438C0.00391715 14.7144 0.195209 15.1639 0.531345 15.4933C0.866628 15.8218 1.31856 16.0039 1.79006 16H22.2099ZM22.2099 16L22.2078 16.5L22.2089 15.9999L22.2099 16Z" stroke="black" stroke-opacity="0.2" style="stroke:black;stroke-opacity:0.2;" stroke-width="0.5"/>
<path d="M12 15.9999H21.8895C23 16 23 16 23.5 15.5C24 15 24 15 24 14.1797V12C20.2656 13.88 16.2155 15.23 12 15.9999Z" fill="#F27712" style="fill:#F27712;fill:color(display-p3 0.9490 0.4667 0.0706);fill-opacity:1;"/>
<path d="M23.1725 9.29643H22.32L21.3601 8.03023H21.269V9.29643H20.5738V6.15161H21.6C22.4028 6.15161 22.8663 6.48264 22.8663 7.0785C22.8663 7.56678 22.5766 7.88126 22.0552 7.98057L23.1725 9.29643ZM22.1463 7.10333C22.1463 6.79712 21.9145 6.63988 21.4842 6.63988H21.269V7.59161H21.4676C21.9145 7.59161 22.1463 7.42609 22.1463 7.10333ZM18.1407 6.15161H20.1104V6.68126H18.8359V7.38471H20.0607V7.92264H18.8359V8.77505H20.1104V9.30471H18.1407V6.15161ZM15.9063 9.37919L14.4001 6.14333H15.1614L16.1132 8.26195L17.0732 6.14333H17.818L16.2952 9.37919H15.9228H15.9063ZM9.60833 9.37092C8.54902 9.37092 7.72143 8.65092 7.72143 7.71574C7.72143 6.8054 8.56557 6.06885 9.62488 6.06885C9.92281 6.06885 10.1711 6.12678 10.4773 6.25919V6.98747C10.2454 6.75965 9.9334 6.63187 9.60833 6.63161C8.94626 6.63161 8.44143 7.11161 8.44143 7.71574C8.44143 8.35299 8.93798 8.80816 9.64143 8.80816C9.95591 8.80816 10.1959 8.70885 10.4773 8.46057V9.18885C10.1628 9.32126 9.89798 9.37092 9.60833 9.37092ZM7.50626 8.33643C7.50626 8.94885 7.00143 9.37092 6.27315 9.37092C5.7435 9.37092 5.36281 9.18885 5.04005 8.77505L5.49522 8.38609C5.65246 8.66747 5.91729 8.80816 6.24833 8.80816C6.56281 8.80816 6.78626 8.61781 6.78626 8.36954C6.78626 8.22885 6.72005 8.12126 6.57936 8.0385C6.4251 7.96365 6.26446 7.90271 6.09936 7.85643C5.44557 7.64954 5.22212 7.42609 5.22212 6.98747C5.22212 6.47436 5.70212 6.0854 6.33109 6.0854C6.72833 6.0854 7.08419 6.20954 7.38212 6.44126L7.01798 6.85505C6.87366 6.69683 6.66938 6.60671 6.45522 6.60678C6.15729 6.60678 5.94212 6.75574 5.94212 6.95436C5.94212 7.11988 6.06626 7.21092 6.48005 7.35161C7.27453 7.59988 7.50626 7.83161 7.50626 8.34471V8.33643ZM4.08833 6.15161H4.7835V9.30471H4.08833V6.15161ZM1.85384 9.30471H0.827637V6.15161H1.85384C2.97936 6.15161 3.75729 6.79712 3.75729 7.72402C3.75729 8.19574 3.52557 8.64264 3.12005 8.94057C2.77246 9.18885 2.3835 9.30471 1.84557 9.30471H1.85384ZM2.66488 6.93781C2.43315 6.75574 2.16833 6.68954 1.71315 6.68954H1.52281V8.77505H1.71315C2.16005 8.77505 2.44143 8.6923 2.66488 8.52678C2.90488 8.32816 3.04557 8.03023 3.04557 7.72402C3.04557 7.41781 2.90488 7.12816 2.66488 6.93781Z" fill="black" style="fill:black;fill-opacity:1;"/>
<path d="M12.4138 6.06885C11.5035 6.06885 10.7587 6.79712 10.7587 7.69919C10.7587 8.65919 11.4704 9.37919 12.4138 9.37919C13.3407 9.37919 14.069 8.65092 14.069 7.72402C14.069 6.79712 13.349 6.06885 12.4138 6.06885Z" fill="#F27712" style="fill:#F27712;fill:color(display-p3 0.9490 0.4667 0.0706);fill-opacity:1;"/>
</g>
<defs>
<clipPath id="clip0_617_16082">
<rect width="24" height="16" fill="white" style="fill:white;fill-opacity:1;"/>
</clipPath>
</defs>
</svg>
