<svg width="74" height="16" viewBox="0 0 74 16" fill="none" xmlns="http://www.w3.org/2000/svg">
<g opacity="0.8">
<path fill-rule="evenodd" clip-rule="evenodd" d="M3.69231 16H69.5385C71.5778 16 73.2308 14.3471 73.2308 12.3077V3.69231C73.2308 1.65292 71.5778 0 69.5385 0H3.69231C1.65292 0 0 1.65292 0 3.69231V12.3077C0 14.3471 1.65292 16 3.69231 16ZM69.5385 0.615385C71.2375 0.615385 72.6154 1.99323 72.6154 3.69231V12.3077C72.6154 14.0068 71.2375 15.3846 69.5385 15.3846H3.69231C1.99323 15.3846 0.615385 14.0068 0.615385 12.3077V3.69231C0.615385 1.99323 1.99323 0.615385 3.69231 0.615385H69.5385ZM36.5517 11.3458H37.3548L39.1942 6.6898H38.3455L37.5622 8.8141L36.7849 6.6898H35.9363L37.1732 9.81103L36.5517 11.3458ZM33.4495 9.70087C33.708 9.9021 33.9935 10.0055 34.2717 10.0055C35.1394 10.0055 35.7351 9.3058 35.7351 8.30887C35.7351 7.31133 35.1394 6.61226 34.2717 6.61226C33.9935 6.61226 33.708 6.71564 33.4495 6.9101V5.27133H32.6206V9.92795H33.4495V9.70087ZM33.4495 7.61595C33.6434 7.42149 33.8705 7.32426 34.0969 7.32426C34.5634 7.32426 34.8871 7.7261 34.8871 8.30887C34.8871 8.89164 34.5634 9.29287 34.0969 9.29287C33.8705 9.29287 33.6434 9.19564 33.4495 9.0018V7.61595ZM28.4428 10.0055C28.7277 10.0055 29.0126 9.9021 29.2649 9.70087V9.92795H30.1006V5.27133H29.2649V6.9101C29.0126 6.71564 28.7277 6.61226 28.4428 6.61226C27.5812 6.61226 26.9794 7.31133 26.9794 8.30887C26.9794 9.3058 27.5812 10.0055 28.4428 10.0055ZM28.6243 7.32426C28.8508 7.32426 29.0772 7.42149 29.2649 7.61595V9.0018C29.0772 9.19564 28.8508 9.29287 28.6243 9.29287C28.1511 9.29287 27.8274 8.89164 27.8274 8.30887C27.8274 7.7261 28.1511 7.32426 28.6243 7.32426ZM25.3142 9.36426C24.7708 9.36426 24.3818 9.02764 24.3302 8.53533H26.5252C26.5382 8.42518 26.5382 8.3218 26.5382 8.23072C26.5382 7.27934 25.9622 6.61226 25.1135 6.61226C24.1874 6.61226 23.5142 7.30518 23.5142 8.28303C23.5142 9.29287 24.2003 10.0055 25.1782 10.0055C25.5412 10.0055 25.9105 9.92118 26.2791 9.75318V9.05964C25.9425 9.2541 25.6126 9.36426 25.3142 9.36426ZM24.3302 7.9981C24.3689 7.55133 24.6797 7.25287 25.0815 7.25287C25.4508 7.25287 25.716 7.55749 25.7418 7.9981H24.3302ZM22.1474 9.92795V7.76487C22.3609 7.49287 22.6526 7.34395 22.9246 7.34395C23.0218 7.34395 23.1252 7.35687 23.2157 7.38272V6.64426C23.1252 6.61841 23.0348 6.61226 22.9437 6.61226C22.6655 6.61226 22.3806 6.75441 22.1474 7.01349V6.6898H21.3185V9.92795H22.1474ZM19.4335 9.36426C18.8895 9.36426 18.5012 9.02764 18.4495 8.53533H20.6446C20.6575 8.42518 20.6575 8.3218 20.6575 8.23072C20.6575 7.27934 20.0809 6.61226 19.2329 6.61226C18.3068 6.61226 17.6335 7.30518 17.6335 8.28303C17.6335 9.29287 18.3197 10.0055 19.2975 10.0055C19.66 10.0055 20.0292 9.92118 20.3985 9.75318V9.05964C20.0619 9.2541 19.7314 9.36426 19.4335 9.36426ZM18.4495 7.9981C18.4883 7.55133 18.7991 7.25287 19.2003 7.25287C19.5695 7.25287 19.8354 7.55749 19.8612 7.9981H18.4495ZM14.8932 7.7261L15.5542 9.92795H16.2988L17.4059 6.6898H16.5769L15.9228 8.89164L15.2686 6.6898H14.5179L13.8637 8.89164L13.2095 6.6898H12.3806L13.4945 9.92795H14.2391L14.8932 7.7261ZM8.81816 8.30887C8.81816 9.29964 9.51108 10.0055 10.4889 10.0055C11.4668 10.0055 12.1535 9.29964 12.1535 8.30887C12.1535 7.31133 11.4668 6.61226 10.4889 6.61226C9.51108 6.61226 8.81816 7.31133 8.81816 8.30887ZM9.66677 8.30887C9.66677 7.71318 10.0034 7.30518 10.4889 7.30518C10.9683 7.30518 11.3049 7.71318 11.3049 8.30887C11.3049 8.90456 10.9683 9.31256 10.4889 9.31256C10.0034 9.31256 9.66677 8.90456 9.66677 8.30887ZM6.10431 8.32795H6.84893C7.75601 8.32795 8.40339 7.74518 8.40339 6.90334C8.40339 6.06149 7.75601 5.47195 6.84893 5.47195H5.27539V9.92795H6.10431V8.32795ZM6.10431 6.1458H6.73262C7.21201 6.1458 7.54862 6.45041 7.54862 6.90334C7.54862 7.3501 7.21201 7.65472 6.73262 7.65472H6.10431V6.1458ZM64.9591 8.64672H68.38C68.388 8.55256 68.4034 8.18641 68.4034 8.01718C68.4034 6.22764 67.5369 4.81533 65.8772 4.81533C64.2151 4.81533 63.2034 6.22826 63.2034 8.00795C63.2034 10.115 64.396 11.1809 66.0981 11.1809C66.9332 11.1809 67.5603 10.9913 68.0348 10.728V9.32057C67.5585 9.56057 67.012 9.70703 66.3185 9.70703C65.6372 9.70703 65.0372 9.4658 64.9591 8.64672ZM64.9437 7.35687C64.9437 6.5698 65.4292 6.23995 65.8661 6.23995C66.2951 6.23995 66.7505 6.57041 66.7505 7.35687H64.9437ZM59.1388 10.739C59.3898 10.923 59.7634 11.1809 60.3751 11.1809C61.6249 11.1809 62.7683 10.1753 62.7683 7.95503C62.7683 5.92057 61.6126 4.81533 60.3855 4.81533C59.7006 4.81533 59.2582 5.1378 59.0169 5.36303L58.9258 4.93164H57.3874L57.388 13.0879L59.1351 12.7163L59.1388 10.739ZM59.1332 6.70949C59.3154 6.50949 59.5671 6.36303 59.9677 6.36303C60.6071 6.36303 61.0471 7.07934 61.0471 7.99318C61.0471 8.9341 60.6138 9.63749 59.9677 9.63749C59.5578 9.63749 59.3135 9.4898 59.1437 9.3058L59.1332 6.70949ZM56.6157 4.93164H54.8618V11.056H56.6157V4.93164ZM56.6157 2.60303L54.8618 2.97595V4.39933L56.6157 4.02641V2.60303ZM52.9917 11.056V6.90395C53.4046 6.3618 54.1018 6.46641 54.324 6.53841V4.93226C54.0914 4.84857 53.2748 4.69595 52.8655 5.44795L52.756 4.93164H51.2452V11.056H52.9917ZM50.5726 9.52734C50.3492 9.61657 49.2465 9.93718 49.2465 8.90764V6.42149H50.5732V4.93164H49.2465L49.2452 3.4141L47.5394 3.77718L47.5314 9.38272C47.5314 10.4172 48.3098 11.1809 49.3468 11.1809C49.9178 11.1809 50.34 11.0775 50.5726 10.9495V9.52734ZM44.6145 11.1809C46.0674 11.1809 47.0686 10.4633 47.0686 9.20549C47.0686 7.91476 46.0436 7.56713 45.2634 7.30254C44.7841 7.13999 44.3972 7.00878 44.3972 6.70949C44.3972 6.43687 44.6249 6.33103 44.9911 6.33103C45.5222 6.33103 46.1972 6.49349 46.7289 6.78087V5.13472C46.1498 4.90395 45.5714 4.81533 44.9923 4.81533C43.5751 4.81533 42.6305 5.55564 42.6305 6.79257C42.6305 7.96011 43.5983 8.30851 44.3655 8.58469C44.8692 8.76602 45.2865 8.91622 45.2865 9.24672C45.2865 9.5698 45.0058 9.67441 44.6163 9.67441C44.0372 9.67441 43.2902 9.43503 42.7037 9.11626V10.7846C43.3535 11.0639 44.012 11.1809 44.6145 11.1809Z" fill="#2D2F33" style="fill:#2D2F33;fill:color(display-p3 0.1765 0.1843 0.2000);fill-opacity:1;"/>
</g>
</svg>
