<svg width="43" height="20" viewBox="0 0 43 20" fill="none" xmlns="http://www.w3.org/2000/svg">
<path fill-rule="evenodd" clip-rule="evenodd" d="M19.5721 10.8152V15.5474H18.0708V3.86089H22.0524C22.5277 3.85096 23.0002 3.93526 23.4427 4.1089C23.8852 4.28255 24.289 4.54211 24.6307 4.87261C24.9758 5.18305 25.2505 5.56377 25.4362 5.98917C25.622 6.41458 25.7145 6.87483 25.7077 7.33898C25.7175 7.80561 25.6264 8.26886 25.4405 8.69698C25.2546 9.1251 24.9784 9.50796 24.6307 9.81933C23.9344 10.4832 23.075 10.8149 22.0524 10.8143H19.5721V10.8152ZM19.5721 5.29968V9.37921H22.0897C22.3657 9.38739 22.6404 9.33787 22.8962 9.23383C23.152 9.12978 23.3832 8.9735 23.5751 8.77497C23.766 8.58935 23.9178 8.36733 24.0214 8.12205C24.1251 7.87676 24.1785 7.61318 24.1785 7.3469C24.1785 7.08062 24.1251 6.81705 24.0214 6.57176C23.9178 6.32647 23.766 6.10446 23.5751 5.91884C23.3856 5.71613 23.1552 5.55601 22.8991 5.44911C22.643 5.34221 22.3671 5.29095 22.0897 5.29875H19.5721V5.29968ZM29.1671 7.29041C30.2768 7.29041 31.1527 7.58693 31.7948 8.17998C32.437 8.77302 32.7577 9.58613 32.7571 10.6193V15.5474H31.3211V14.4377H31.2559C30.6342 15.3515 29.8074 15.8085 28.7755 15.8085C27.8946 15.8085 27.1577 15.5474 26.5646 15.0252C26.28 14.7855 26.0525 14.4854 25.8986 14.1466C25.7447 13.8079 25.6683 13.439 25.6751 13.067C25.6751 12.2396 25.9878 11.5816 26.6131 11.093C27.2385 10.6044 28.0734 10.3595 29.1177 10.3582C30.0092 10.3582 30.7433 10.5214 31.3202 10.8478V10.5046C31.3219 10.251 31.2671 10.0002 31.1599 9.77035C31.0526 9.54053 30.8956 9.33745 30.7001 9.17585C30.3031 8.81767 29.7857 8.62223 29.2511 8.62849C28.4125 8.62849 27.7489 8.98221 27.2603 9.68963L25.938 8.85695C26.6653 7.81259 27.7417 7.29041 29.1671 7.29041ZM27.2248 13.0996C27.2238 13.2907 27.2685 13.4792 27.3551 13.6496C27.4417 13.8199 27.5678 13.967 27.7228 14.0787C28.0548 14.3399 28.4669 14.4783 28.8893 14.4704C29.5228 14.4693 30.13 14.2172 30.578 13.7692C31.0753 13.3011 31.3239 12.7518 31.3239 12.1215C30.8558 11.7485 30.2031 11.562 29.3658 11.562C28.7559 11.562 28.2474 11.709 27.8402 12.0031C27.429 12.3015 27.2248 12.6642 27.2248 13.0996ZM35.9871 19.0721L41.0001 7.55153H39.3655L37.0483 13.2955H37.0157L34.6332 7.55153H33.0014L36.2977 15.0411L34.4374 19.0721H35.9871Z" fill="white" style="fill:white;fill-opacity:1;"/>
<path d="M14.5144 9.79506C14.515 9.33755 14.4763 8.88083 14.3988 8.42993H8.06738V11.0156H11.6937C11.6195 11.4286 11.4625 11.8223 11.232 12.1729C11.0016 12.5236 10.7025 12.8239 10.3528 13.0559V14.7343H12.5171C13.7843 13.5659 14.5144 11.8381 14.5144 9.79506Z" fill="#4285F4" style="fill:#4285F4;fill:color(display-p3 0.2588 0.5216 0.9569);fill-opacity:1;"/>
<path d="M8.06737 16.356C9.87915 16.356 11.4047 15.7611 12.5171 14.7354L10.3528 13.057C9.75047 13.4654 8.97466 13.6985 8.06737 13.6985C6.31621 13.6985 4.82987 12.518 4.29836 10.9272H2.06885V12.657C2.62764 13.7689 3.48449 14.7037 4.54373 15.3569C5.60298 16.01 6.82292 16.356 8.06737 16.356Z" fill="#34A853" style="fill:#34A853;fill:color(display-p3 0.2039 0.6588 0.3255);fill-opacity:1;"/>
<path d="M4.29841 10.927C4.01743 10.0934 4.01743 9.19074 4.29841 8.35716V6.62744H2.0689C1.59882 7.56284 1.354 8.59522 1.354 9.64209C1.354 10.689 1.59882 11.7213 2.0689 12.6567L4.29841 10.927Z" fill="#FBBC04" style="fill:#FBBC04;fill:color(display-p3 0.9843 0.7373 0.0157);fill-opacity:1;"/>
<path d="M8.06737 5.58594C9.02481 5.57029 9.94996 5.93204 10.6428 6.593L12.559 4.67679C11.344 3.53552 9.73426 2.90895 8.06737 2.92842C6.82292 2.92848 5.60298 3.27441 4.54373 3.92761C3.48449 4.58081 2.62764 5.51556 2.06885 6.6275L4.29836 8.35721C4.82987 6.76643 6.31621 5.58594 8.06737 5.58594Z" fill="#EA4335" style="fill:#EA4335;fill:color(display-p3 0.9176 0.2627 0.2078);fill-opacity:1;"/>
</svg>
