<svg width="24" height="16" viewBox="0 0 24 16" fill="none" xmlns="http://www.w3.org/2000/svg">
<g clip-path="url(#clip0_617_16091)">
<path d="M22.2099 16L22.2122 16C23.1876 16.0082 23.9878 15.2274 24 14.2543L24 1.7563C23.9961 1.28569 23.8048 0.83617 23.4686 0.506802C23.1333 0.178269 22.6814 -0.00385122 22.2099 7.07757e-05L1.78788 6.17754e-05C1.31855 -0.00385122 0.866627 0.178269 0.531341 0.506802C0.195204 0.83617 0.00391149 1.28569 0 1.75426L0 14.2438C0.00391966 14.7144 0.195212 15.1639 0.531349 15.4933C0.866635 15.8218 1.31856 16.0039 1.79006 16L22.2099 16Z" fill="white" style="fill:white;fill-opacity:1;"/>
<path d="M22.2089 16.5L22.2078 15.9999M22.2099 16L22.2122 16C23.1876 16.0082 23.9878 15.2274 24 14.2543L24 1.7563C23.9961 1.28569 23.8048 0.83617 23.4686 0.506802C23.1333 0.178269 22.6814 -0.00385122 22.2099 7.07757e-05L1.78788 6.17754e-05C1.31855 -0.00385122 0.866627 0.178269 0.531341 0.506802C0.195204 0.83617 0.00391149 1.28569 0 1.75426L0 14.2438C0.00391966 14.7144 0.195212 15.1639 0.531349 15.4933C0.866635 15.8218 1.31856 16.0039 1.79006 16L22.2099 16Z" stroke="black" stroke-opacity="0.2" style="stroke:black;stroke-opacity:0.2;" stroke-width="0.5"/>
<path fill-rule="evenodd" clip-rule="evenodd" d="M6.42857 3.28564H17.5714C17.6851 3.28564 17.7941 3.3308 17.8745 3.41117C17.9548 3.49154 18 3.60055 18 3.71422V5.48207H6V3.71422C6 3.60055 6.04515 3.49154 6.12553 3.41117C6.2059 3.3308 6.31491 3.28564 6.42857 3.28564ZM6.12553 12.5888C6.04515 12.5084 6 12.3994 6 12.2858V7.08932H18V12.2858C18 12.3994 17.9548 12.5084 17.8745 12.5888C17.7941 12.6692 17.6851 12.7143 17.5714 12.7143H6.42857C6.31491 12.7143 6.2059 12.6692 6.12553 12.5888ZM7.83062 8.4378C7.79043 8.47799 7.76786 8.53249 7.76786 8.58932V10.3036C7.76786 10.3604 7.79043 10.4149 7.83062 10.4551C7.87081 10.4953 7.92531 10.5179 7.98214 10.5179H10.4464C10.5033 10.5179 10.5578 10.4953 10.598 10.4551C10.6381 10.4149 10.6607 10.3604 10.6607 10.3036V8.58932C10.6607 8.53249 10.6381 8.47799 10.598 8.4378C10.5578 8.39762 10.5033 8.37504 10.4464 8.37504H7.98214C7.92531 8.37504 7.87081 8.39762 7.83062 8.4378Z" fill="#158AFF" style="fill:#158AFF;fill:color(display-p3 0.0833 0.5397 1.0000);fill-opacity:1;"/>
</g>
<defs>
<clipPath id="clip0_617_16091">
<rect width="24" height="16" fill="white" style="fill:white;fill-opacity:1;"/>
</clipPath>
</defs>
</svg>
