<svg width="24" height="16" viewBox="0 0 24 16" fill="none" xmlns="http://www.w3.org/2000/svg">
<g clip-path="url(#clip0_617_16078)">
<path d="M22.2099 15.5L22.2121 15.5C23.1875 15.5082 23.9878 14.7273 24 13.7542L24 1.75631C23.9961 1.28569 23.8048 0.836175 23.4687 0.506804C23.1334 0.17827 22.6814 -0.00385119 22.2099 7.08337e-05L1.78788 6.17737e-05C1.31856 -0.00385118 0.866631 0.17827 0.531348 0.506804C0.195212 0.836175 0.00391979 1.2857 8.49175e-06 1.75427L0 13.7438C0.00391979 14.2144 0.195212 14.6639 0.531348 14.9933C0.866631 15.3218 1.31856 15.5039 1.79006 15.5H22.2099ZM22.2089 16L22.2078 16L22.2099 16H22.2089Z" fill="white" stroke="black" stroke-opacity="0.2" style="fill:white;fill-opacity:1;stroke:black;stroke-opacity:0.2;" stroke-width="0.5"/>
<path d="M10.0022 2.05189V2.03589H14.0022V2.05189C17.1376 2.28133 19.5643 4.89207 19.5643 8.03589C19.5643 11.1797 17.1376 13.7905 14.0022 14.0199V14.0359H10.0022V14.0199C6.86674 13.7905 4.44006 11.1797 4.44006 8.03589C4.44006 4.89207 6.86674 2.28133 10.0022 2.05189Z" fill="#0165AC" style="fill:#0165AC;fill:color(display-p3 0.0039 0.3961 0.6745);fill-opacity:1;"/>
<path d="M11.6021 11.4277C13.0374 10.9174 13.9962 9.55899 13.9962 8.03569C13.9962 6.51239 13.0374 5.15398 11.6021 4.64369V11.4277ZM9.20215 4.64369C7.76686 5.15398 6.80811 6.51239 6.80811 8.03569C6.80811 9.55899 7.76686 10.9174 9.20215 11.4277V4.64369ZM10.4021 13.2357C7.53027 13.2357 5.20215 10.9076 5.20215 8.03569C5.20215 5.16381 7.53027 2.83569 10.4021 2.83569C13.274 2.83569 15.6021 5.16381 15.6021 8.03569C15.6021 10.9076 13.274 13.2357 10.4021 13.2357Z" fill="white" style="fill:white;fill-opacity:1;"/>
</g>
<defs>
<clipPath id="clip0_617_16078">
<rect width="24" height="16" fill="white" style="fill:white;fill-opacity:1;"/>
</clipPath>
</defs>
</svg>
