<svg width="26" height="18" viewBox="0 0 26 18" fill="none" xmlns="http://www.w3.org/2000/svg">
<path d="M22.9574 1H3.04255C1.91448 1 1 1.92432 1 3.06452V14.9355C1 16.0757 1.91448 17 3.04255 17H22.9574C24.0855 17 25 16.0757 25 14.9355V3.06452C25 1.92432 24.0855 1 22.9574 1Z" fill="white" stroke="black" stroke-opacity="0.2" style="fill:white;fill-opacity:1;stroke:black;stroke-opacity:0.2;" stroke-width="0.5"/>
<path d="M3.78773 6.91444C3.26459 6.62751 2.66754 6.39674 2 6.23659L2.028 6.11188H4.76498C5.13596 6.12489 5.43699 6.23651 5.53495 6.63071L6.12977 9.46659L6.31198 10.3207L7.97797 6.11188H9.77679L7.10288 12.2775H5.30397L3.78773 6.91444ZM11.1 12.2841H9.39883L10.4628 6.11188H12.1639L11.1 12.2841ZM17.2668 6.26277L17.0354 7.59559L16.8816 7.53004C16.5737 7.40525 16.1674 7.28054 15.6144 7.29371C14.9427 7.29371 14.6415 7.56277 14.6345 7.82546C14.6345 8.11441 14.9989 8.30484 15.5939 8.58725C16.574 9.02719 17.0286 9.56557 17.0218 10.2682C17.0081 11.5486 15.846 12.3761 14.0611 12.3761C13.2979 12.3694 12.5628 12.2181 12.1638 12.0476L12.4019 10.662L12.6259 10.7607C13.1789 10.9907 13.5428 11.089 14.222 11.089C14.7118 11.089 15.2369 10.8984 15.2436 10.4849C15.2436 10.2157 15.0199 10.0185 14.3617 9.71646C13.7178 9.42087 12.8568 8.92848 12.8708 8.04198C12.8781 6.84042 14.0611 6 15.741 6C16.399 6 16.9312 6.13789 17.2668 6.26277ZM19.5278 10.0975H20.9417C20.8718 9.78889 20.5496 8.31147 20.5496 8.31147L20.4307 7.77964C20.3467 8.00943 20.1999 8.38373 20.2069 8.37056C20.2069 8.37056 19.6678 9.7429 19.5278 10.0975ZM21.6276 6.11188L23 12.284H21.4249C21.4249 12.284 21.2708 11.5748 21.2219 11.3581H19.0378C18.9746 11.5222 18.6808 12.284 18.6808 12.284H16.8958L19.4226 6.62399C19.5977 6.22342 19.906 6.11188 20.3118 6.11188H21.6276Z" fill="#1434CB" style="fill:#1434CB;fill:color(display-p3 0.0784 0.2039 0.7961);fill-opacity:1;"/>
</svg>
