<svg width="16" height="16" viewBox="0 0 16 16" fill="none" xmlns="http://www.w3.org/2000/svg">
<g clip-path="url(#clip0_856_4059)">
<path d="M15.1902 4.90714C15.0843 4.80046 14.9582 4.71585 14.8194 4.65823C14.6805 4.6006 14.5316 4.5711 14.3813 4.57143H12.0956V4C12.0956 2.93913 11.6741 1.92172 10.924 1.17157C10.1738 0.421427 9.15643 0 8.09556 0C7.0347 0 6.01728 0.421427 5.26714 1.17157C4.51699 1.92172 4.09556 2.93913 4.09556 4V4.57143H1.80985C1.50674 4.57143 1.21605 4.69184 1.00173 4.90616C0.7874 5.12049 0.666992 5.41118 0.666992 5.71429V13.4286C0.666992 14.8214 1.84556 16 3.23842 16H12.9527C13.6264 16.0002 14.2735 15.7368 14.7556 15.2661C14.9981 15.0347 15.1913 14.7565 15.3234 14.4483C15.4555 14.1402 15.5238 13.8085 15.5241 13.4732V5.71429C15.5246 5.56435 15.4953 5.41582 15.438 5.27727C15.3807 5.13873 15.2965 5.01292 15.1902 4.90714ZM5.23842 4C5.23842 3.24224 5.53944 2.51551 6.07526 1.97969C6.61108 1.44388 7.3378 1.14286 8.09556 1.14286C8.85332 1.14286 9.58005 1.44388 10.1159 1.97969C10.6517 2.51551 10.9527 3.24224 10.9527 4V4.57143H5.23842V4ZM12.0956 7.42857C12.0956 8.48944 11.6741 9.50685 10.924 10.257C10.1738 11.0071 9.15643 11.4286 8.09556 11.4286C7.0347 11.4286 6.01728 11.0071 5.26714 10.257C4.51699 9.50685 4.09556 8.48944 4.09556 7.42857V6.85714C4.09556 6.70559 4.15577 6.56025 4.26293 6.45308C4.37009 6.34592 4.51544 6.28571 4.66699 6.28571C4.81854 6.28571 4.96389 6.34592 5.07105 6.45308C5.17822 6.56025 5.23842 6.70559 5.23842 6.85714V7.42857C5.23842 8.18633 5.53944 8.91306 6.07526 9.44888C6.61108 9.9847 7.3378 10.2857 8.09556 10.2857C8.85332 10.2857 9.58005 9.9847 10.1159 9.44888C10.6517 8.91306 10.9527 8.18633 10.9527 7.42857V6.85714C10.9527 6.70559 11.0129 6.56025 11.1201 6.45308C11.2272 6.34592 11.3726 6.28571 11.5241 6.28571C11.6757 6.28571 11.821 6.34592 11.9282 6.45308C12.0354 6.56025 12.0956 6.70559 12.0956 6.85714V7.42857Z" fill="black" style="fill:black;fill-opacity:1;"/>
</g>
<defs>
<clipPath id="clip0_856_4059">
<rect width="16" height="16" fill="white" style="fill:white;fill-opacity:1;"/>
</clipPath>
</defs>
</svg>
