<svg width="23" height="16" viewBox="0 0 23 16" fill="none" xmlns="http://www.w3.org/2000/svg">
<g clip-path="url(#clip0_617_16077)">
<path d="M0.205322 16H4.72318C5.75099 16 6.98211 14.8053 6.98211 13.8667V0H2.46425C1.43644 0 0.205322 1.19467 0.205322 3.2V16Z" fill="#047AB1" style="fill:#047AB1;fill:color(display-p3 0.0157 0.4784 0.6941);fill-opacity:1;"/>
<path d="M2.76921 10.8159C1.90187 10.8161 1.03881 10.7012 0.205322 10.4746V9.30125C0.852111 9.67896 1.59142 9.89209 2.3513 9.91992C3.22099 9.91992 3.70666 9.34392 3.70666 8.55458V5.33325H5.85264V8.55458C5.85264 9.81325 5.15238 10.8159 2.76921 10.8159Z" fill="white" style="fill:white;fill-opacity:1;"/>
<path d="M8.11157 16H12.6294C13.6572 16 14.8884 14.8053 14.8884 13.8667V0H10.3705C9.34269 0 8.11157 1.19467 8.11157 3.2V16Z" fill="#D42D06" style="fill:#D42D06;fill:color(display-p3 0.8314 0.1765 0.0235);fill-opacity:1;"/>
<path d="M8.11157 6.08005C8.76666 5.48272 9.89613 5.10939 11.7259 5.19472C12.7198 5.23739 13.7589 5.51472 13.7589 5.51472V6.69872C13.1646 6.35925 12.4965 6.15137 11.8049 6.09072C10.4157 5.97339 9.56858 6.70939 9.56858 8.00005C9.56858 9.29072 10.4157 10.0267 11.8049 9.92005C12.4969 9.85399 13.1646 9.64261 13.7589 9.30139V10.4747C13.7589 10.4747 12.7198 10.7627 11.7259 10.8054C9.89613 10.8907 8.76666 10.5174 8.11157 9.92005V6.08005Z" fill="white" style="fill:white;fill-opacity:1;"/>
<path d="M16.0178 16H20.5357C21.5635 16 22.7946 14.8053 22.7946 13.8667V0H18.2768C17.2489 0 16.0178 1.19467 16.0178 3.2V16Z" fill="#67B637" style="fill:#67B637;fill:color(display-p3 0.4039 0.7137 0.2157);fill-opacity:1;"/>
<path d="M21.6651 9.27992C21.6651 10.1333 20.9649 10.6666 20.0274 10.6666H16.0178V5.33325H19.666L19.9258 5.34392C20.7503 5.38658 21.3602 5.84525 21.3602 6.63458C21.3602 7.25325 20.9423 7.78659 20.1855 7.91459V7.94659C21.0214 7.99992 21.6651 8.50125 21.6651 9.27992ZM18.785 6.17592C18.7364 6.16905 18.6873 6.16549 18.6382 6.16525H17.2828V7.50925H18.785C19.0674 7.44525 19.3046 7.19992 19.3046 6.83725C19.3046 6.47459 19.0674 6.22925 18.785 6.17592ZM18.9544 8.35192C18.8947 8.34306 18.8342 8.33949 18.7737 8.34125H17.2828V9.80259H18.7737L18.9544 9.78125C19.2368 9.71725 19.474 9.43992 19.474 9.06659C19.474 8.69325 19.2481 8.42659 18.9544 8.35192Z" fill="white" style="fill:white;fill-opacity:1;"/>
</g>
<defs>
<clipPath id="clip0_617_16077">
<rect width="23" height="16" fill="white" style="fill:white;fill-opacity:1;"/>
</clipPath>
</defs>
</svg>
