<svg width="92" height="11" viewBox="0 0 92 11" fill="none" xmlns="http://www.w3.org/2000/svg">
<g opacity="0.8">
<path d="M0.75142 8V2.18182H2.71733C3.17377 2.18182 3.54688 2.2642 3.83665 2.42898C4.12831 2.59186 4.34422 2.8125 4.48438 3.09091C4.62453 3.36932 4.6946 3.67992 4.6946 4.02273C4.6946 4.36553 4.62453 4.67708 4.48438 4.95739C4.34612 5.23769 4.1321 5.46117 3.84233 5.62784C3.55256 5.79261 3.18134 5.875 2.72869 5.875H1.3196V5.25H2.70597C3.01847 5.25 3.26941 5.19602 3.45881 5.08807C3.6482 4.98011 3.78551 4.83428 3.87074 4.65057C3.95786 4.46496 4.00142 4.25568 4.00142 4.02273C4.00142 3.78977 3.95786 3.58144 3.87074 3.39773C3.78551 3.21402 3.64725 3.07008 3.45597 2.96591C3.26468 2.85985 3.01089 2.80682 2.6946 2.80682H1.45597V8H0.75142ZM7.51136 8.09091C7.11742 8.09091 6.77178 7.99716 6.47443 7.80966C6.17898 7.62216 5.94792 7.35985 5.78125 7.02273C5.61648 6.68561 5.53409 6.29167 5.53409 5.84091C5.53409 5.38636 5.61648 4.98958 5.78125 4.65057C5.94792 4.31155 6.17898 4.0483 6.47443 3.8608C6.77178 3.6733 7.11742 3.57955 7.51136 3.57955C7.9053 3.57955 8.25 3.6733 8.54545 3.8608C8.8428 4.0483 9.07386 4.31155 9.23864 4.65057C9.4053 4.98958 9.48864 5.38636 9.48864 5.84091C9.48864 6.29167 9.4053 6.68561 9.23864 7.02273C9.07386 7.35985 8.8428 7.62216 8.54545 7.80966C8.25 7.99716 7.9053 8.09091 7.51136 8.09091ZM7.51136 7.48864C7.81061 7.48864 8.05682 7.41193 8.25 7.25852C8.44318 7.10511 8.58617 6.90341 8.67898 6.65341C8.77178 6.40341 8.81818 6.13258 8.81818 5.84091C8.81818 5.54924 8.77178 5.27746 8.67898 5.02557C8.58617 4.77367 8.44318 4.57008 8.25 4.41477C8.05682 4.25947 7.81061 4.18182 7.51136 4.18182C7.21212 4.18182 6.96591 4.25947 6.77273 4.41477C6.57955 4.57008 6.43655 4.77367 6.34375 5.02557C6.25095 5.27746 6.20455 5.54924 6.20455 5.84091C6.20455 6.13258 6.25095 6.40341 6.34375 6.65341C6.43655 6.90341 6.57955 7.10511 6.77273 7.25852C6.96591 7.41193 7.21212 7.48864 7.51136 7.48864ZM11.3523 8L10.0227 3.63636H10.7273L11.6705 6.97727H11.7159L12.6477 3.63636H13.3636L14.2841 6.96591H14.3295L15.2727 3.63636H15.9773L14.6477 8H13.9886L13.0341 4.64773H12.9659L12.0114 8H11.3523ZM18.5447 8.09091C18.1243 8.09091 17.7616 7.99811 17.4567 7.8125C17.1536 7.625 16.9197 7.36364 16.755 7.02841C16.5921 6.69129 16.5107 6.29924 16.5107 5.85227C16.5107 5.4053 16.5921 5.01136 16.755 4.67045C16.9197 4.32765 17.1489 4.06061 17.4425 3.86932C17.7379 3.67614 18.0826 3.57955 18.4766 3.57955C18.7038 3.57955 18.9283 3.61742 19.1499 3.69318C19.3714 3.76894 19.5732 3.89205 19.755 4.0625C19.9368 4.23106 20.0817 4.45455 20.1896 4.73295C20.2976 5.01136 20.3516 5.35417 20.3516 5.76136V6.04545H16.9879V5.46591H19.6697C19.6697 5.2197 19.6205 5 19.522 4.80682C19.4254 4.61364 19.2872 4.46117 19.1072 4.34943C18.9292 4.23769 18.719 4.18182 18.4766 4.18182C18.2095 4.18182 17.9785 4.24811 17.7834 4.38068C17.5902 4.51136 17.4415 4.68182 17.3374 4.89205C17.2332 5.10227 17.1811 5.32765 17.1811 5.56818V5.95455C17.1811 6.28409 17.2379 6.56345 17.3516 6.79261C17.4671 7.01989 17.6271 7.19318 17.8317 7.3125C18.0362 7.42992 18.2739 7.48864 18.5447 7.48864C18.7209 7.48864 18.88 7.46402 19.022 7.41477C19.166 7.36364 19.29 7.28788 19.3942 7.1875C19.4983 7.08523 19.5788 6.95833 19.6357 6.80682L20.2834 6.98864C20.2152 7.20833 20.1006 7.40152 19.9396 7.56818C19.7786 7.73295 19.5798 7.86174 19.343 7.95455C19.1063 8.04545 18.8402 8.09091 18.5447 8.09091ZM21.3714 8V3.63636H22.0192V4.29545H22.0646C22.1442 4.07955 22.2881 3.90436 22.4964 3.76989C22.7048 3.63542 22.9396 3.56818 23.201 3.56818C23.2502 3.56818 23.3118 3.56913 23.3857 3.57102C23.4595 3.57292 23.5154 3.57576 23.5533 3.57955V4.26136C23.5305 4.25568 23.4785 4.24716 23.397 4.2358C23.3175 4.22254 23.2332 4.21591 23.1442 4.21591C22.9321 4.21591 22.7427 4.26042 22.576 4.34943C22.4112 4.43655 22.2805 4.55777 22.1839 4.71307C22.0893 4.86648 22.0419 5.04167 22.0419 5.23864V8H21.3714ZM26.0447 8.09091C25.6243 8.09091 25.2616 7.99811 24.9567 7.8125C24.6536 7.625 24.4197 7.36364 24.255 7.02841C24.0921 6.69129 24.0107 6.29924 24.0107 5.85227C24.0107 5.4053 24.0921 5.01136 24.255 4.67045C24.4197 4.32765 24.6489 4.06061 24.9425 3.86932C25.2379 3.67614 25.5826 3.57955 25.9766 3.57955C26.2038 3.57955 26.4283 3.61742 26.6499 3.69318C26.8714 3.76894 27.0732 3.89205 27.255 4.0625C27.4368 4.23106 27.5817 4.45455 27.6896 4.73295C27.7976 5.01136 27.8516 5.35417 27.8516 5.76136V6.04545H24.4879V5.46591H27.1697C27.1697 5.2197 27.1205 5 27.022 4.80682C26.9254 4.61364 26.7872 4.46117 26.6072 4.34943C26.4292 4.23769 26.219 4.18182 25.9766 4.18182C25.7095 4.18182 25.4785 4.24811 25.2834 4.38068C25.0902 4.51136 24.9415 4.68182 24.8374 4.89205C24.7332 5.10227 24.6811 5.32765 24.6811 5.56818V5.95455C24.6811 6.28409 24.7379 6.56345 24.8516 6.79261C24.9671 7.01989 25.1271 7.19318 25.3317 7.3125C25.5362 7.42992 25.7739 7.48864 26.0447 7.48864C26.2209 7.48864 26.38 7.46402 26.522 7.41477C26.666 7.36364 26.79 7.28788 26.8942 7.1875C26.9983 7.08523 27.0788 6.95833 27.1357 6.80682L27.7834 6.98864C27.7152 7.20833 27.6006 7.40152 27.4396 7.56818C27.2786 7.73295 27.0798 7.86174 26.843 7.95455C26.6063 8.04545 26.3402 8.09091 26.0447 8.09091ZM30.5192 8.09091C30.1555 8.09091 29.8345 7.99905 29.5561 7.81534C29.2777 7.62973 29.0599 7.36837 28.9027 7.03125C28.7455 6.69223 28.6669 6.29167 28.6669 5.82955C28.6669 5.37121 28.7455 4.97348 28.9027 4.63636C29.0599 4.29924 29.2786 4.03883 29.5589 3.85511C29.8393 3.6714 30.1631 3.57955 30.5305 3.57955C30.8146 3.57955 31.0391 3.62689 31.2038 3.72159C31.3705 3.81439 31.4974 3.92045 31.5845 4.03977C31.6735 4.1572 31.7427 4.25379 31.7919 4.32955H31.8487V2.18182H32.5192V8H31.8714V7.32955H31.7919C31.7427 7.40909 31.6726 7.50947 31.5817 7.63068C31.4908 7.75 31.361 7.85701 31.1925 7.9517C31.0239 8.04451 30.7995 8.09091 30.5192 8.09091ZM30.6101 7.48864C30.879 7.48864 31.1063 7.41856 31.2919 7.27841C31.4775 7.13636 31.6186 6.94034 31.7152 6.69034C31.8118 6.43845 31.8601 6.14773 31.8601 5.81818C31.8601 5.49242 31.8127 5.20739 31.718 4.96307C31.6233 4.71686 31.4832 4.52557 31.2976 4.3892C31.112 4.25095 30.8828 4.18182 30.6101 4.18182C30.326 4.18182 30.0893 4.25473 29.8999 4.40057C29.7124 4.54451 29.5713 4.74053 29.4766 4.98864C29.3838 5.23485 29.3374 5.51136 29.3374 5.81818C29.3374 6.12879 29.3847 6.41098 29.4794 6.66477C29.576 6.91667 29.718 7.11742 29.9055 7.26705C30.0949 7.41477 30.3298 7.48864 30.6101 7.48864ZM36.1811 8V2.18182H36.8516V4.32955H36.9084C36.9576 4.25379 37.0258 4.1572 37.1129 4.03977C37.2019 3.92045 37.3288 3.81439 37.4936 3.72159C37.6603 3.62689 37.8857 3.57955 38.1697 3.57955C38.5372 3.57955 38.861 3.6714 39.1413 3.85511C39.4216 4.03883 39.6404 4.29924 39.7976 4.63636C39.9548 4.97348 40.0334 5.37121 40.0334 5.82955C40.0334 6.29167 39.9548 6.69223 39.7976 7.03125C39.6404 7.36837 39.4226 7.62973 39.1442 7.81534C38.8658 7.99905 38.5447 8.09091 38.1811 8.09091C37.9008 8.09091 37.6764 8.04451 37.5078 7.9517C37.3393 7.85701 37.2095 7.75 37.1186 7.63068C37.0277 7.50947 36.9576 7.40909 36.9084 7.32955H36.8288V8H36.1811ZM36.8402 5.81818C36.8402 6.14773 36.8885 6.43845 36.9851 6.69034C37.0817 6.94034 37.2228 7.13636 37.4084 7.27841C37.594 7.41856 37.8213 7.48864 38.0902 7.48864C38.3705 7.48864 38.6044 7.41477 38.7919 7.26705C38.9813 7.11742 39.1233 6.91667 39.218 6.66477C39.3146 6.41098 39.3629 6.12879 39.3629 5.81818C39.3629 5.51136 39.3156 5.23485 39.2209 4.98864C39.1281 4.74053 38.987 4.54451 38.7976 4.40057C38.6101 4.25473 38.3743 4.18182 38.0902 4.18182C37.8175 4.18182 37.5883 4.25095 37.4027 4.3892C37.2171 4.52557 37.0769 4.71686 36.9822 4.96307C36.8875 5.20739 36.8402 5.49242 36.8402 5.81818ZM41.3345 9.63636C41.2209 9.63636 41.1196 9.62689 41.0305 9.60795C40.9415 9.59091 40.88 9.57386 40.8459 9.55682L41.0163 8.96591C41.1792 9.00758 41.3232 9.02273 41.4482 9.01136C41.5732 9 41.6839 8.94413 41.7805 8.84375C41.879 8.74527 41.969 8.58523 42.0504 8.36364L42.1754 8.02273L40.5618 3.63636H41.2891L42.4936 7.11364H42.5391L43.7436 3.63636H44.4709L42.6186 8.63636C42.5353 8.86174 42.4321 9.0483 42.3089 9.19602C42.1858 9.34564 42.0429 9.45644 41.88 9.52841C41.719 9.60038 41.5372 9.63636 41.3345 9.63636Z" fill="#2D2F33" style="fill:#2D2F33;fill:color(display-p3 0.1765 0.1843 0.2000);fill-opacity:1;"/>
<g clip-path="url(#clip0_566_8217)">
<path fill-rule="evenodd" clip-rule="evenodd" d="M51 3.685V2.5H54V5.5H52.815V3.685H51ZM48 5.5H49.185V7.315H51V8.5H48V5.5Z" fill="#2D2F33" style="fill:#2D2F33;fill:color(display-p3 0.1765 0.1843 0.2000);fill-opacity:1;"/>
</g>
<path d="M59.5923 8H57.6207V2.18182H59.6321C60.2098 2.18182 60.706 2.2983 61.1207 2.53125C61.5374 2.76231 61.8575 3.0947 62.081 3.52841C62.3045 3.96212 62.4162 4.48106 62.4162 5.08523C62.4162 5.69129 62.3035 6.21212 62.0781 6.64773C61.8546 7.08333 61.5317 7.41761 61.1094 7.65057C60.6889 7.88352 60.1832 8 59.5923 8ZM58.6747 7.08807H59.5412C59.9465 7.08807 60.2846 7.0142 60.5554 6.86648C60.8262 6.71686 61.0298 6.49432 61.1662 6.19886C61.3026 5.90152 61.3707 5.5303 61.3707 5.08523C61.3707 4.64015 61.3026 4.27083 61.1662 3.97727C61.0298 3.68182 60.8281 3.46117 60.5611 3.31534C60.2959 3.16761 59.9664 3.09375 59.5724 3.09375H58.6747V7.08807ZM63.419 8V3.63636H64.4474V8H63.419ZM63.9361 3.01705C63.7732 3.01705 63.633 2.96307 63.5156 2.85511C63.3982 2.74526 63.3395 2.61364 63.3395 2.46023C63.3395 2.30492 63.3982 2.1733 63.5156 2.06534C63.633 1.95549 63.7732 1.90057 63.9361 1.90057C64.1009 1.90057 64.241 1.95549 64.3565 2.06534C64.474 2.1733 64.5327 2.30492 64.5327 2.46023C64.5327 2.61364 64.474 2.74526 64.3565 2.85511C64.241 2.96307 64.1009 3.01705 63.9361 3.01705ZM68.9538 4.78977L68.0163 4.89205C67.9898 4.79735 67.9434 4.70833 67.8771 4.625C67.8127 4.54167 67.7256 4.47443 67.6158 4.4233C67.5059 4.37216 67.3714 4.34659 67.2124 4.34659C66.9983 4.34659 66.8184 4.39299 66.6726 4.4858C66.5286 4.5786 66.4576 4.69886 66.4595 4.84659C66.4576 4.97348 66.504 5.0767 66.5987 5.15625C66.6953 5.2358 66.8544 5.30114 67.076 5.35227L67.8203 5.51136C68.2332 5.60038 68.54 5.74148 68.7408 5.93466C68.9434 6.12784 69.0457 6.38068 69.0476 6.69318C69.0457 6.9678 68.9652 7.21023 68.8061 7.42045C68.6489 7.62879 68.4302 7.79167 68.1499 7.90909C67.8696 8.02652 67.5476 8.08523 67.1839 8.08523C66.6499 8.08523 66.2199 7.97348 65.8942 7.75C65.5684 7.52462 65.3743 7.21117 65.3118 6.80966L66.3146 6.71307C66.3601 6.91004 66.4567 7.05871 66.6044 7.15909C66.7521 7.25947 66.9444 7.30966 67.1811 7.30966C67.4254 7.30966 67.6214 7.25947 67.7692 7.15909C67.9188 7.05871 67.9936 6.93466 67.9936 6.78693C67.9936 6.66193 67.9453 6.55871 67.8487 6.47727C67.754 6.39583 67.6063 6.33333 67.4055 6.28977L66.6612 6.13352C66.2427 6.0464 65.933 5.89962 65.7322 5.69318C65.5315 5.48485 65.4321 5.22159 65.4339 4.90341C65.4321 4.63447 65.505 4.40152 65.6527 4.20455C65.8023 4.00568 66.0097 3.85227 66.2749 3.74432C66.5419 3.63447 66.8497 3.57955 67.1982 3.57955C67.7095 3.57955 68.112 3.68845 68.4055 3.90625C68.701 4.12405 68.8838 4.41856 68.9538 4.78977ZM69.8956 9.63636V3.63636H70.907V4.35795H70.9666C71.0196 4.25189 71.0945 4.1392 71.1911 4.01989C71.2876 3.89867 71.4183 3.79545 71.5831 3.71023C71.7479 3.62311 71.9581 3.57955 72.2138 3.57955C72.5509 3.57955 72.8549 3.66572 73.1257 3.83807C73.3984 4.00852 73.6143 4.26136 73.7734 4.59659C73.9344 4.92992 74.0149 5.33902 74.0149 5.82386C74.0149 6.30303 73.9363 6.71023 73.7791 7.04545C73.6219 7.38068 73.4079 7.63636 73.1371 7.8125C72.8662 7.98864 72.5594 8.0767 72.2166 8.0767C71.9666 8.0767 71.7592 8.03504 71.5945 7.9517C71.4297 7.86837 71.2971 7.76799 71.1967 7.65057C71.0982 7.53125 71.0215 7.41856 70.9666 7.3125H70.924V9.63636H69.8956ZM70.9041 5.81818C70.9041 6.10038 70.9439 6.34754 71.0234 6.55966C71.1049 6.77178 71.2214 6.9375 71.3729 7.05682C71.5263 7.17424 71.7119 7.23295 71.9297 7.23295C72.157 7.23295 72.3473 7.17235 72.5007 7.05114C72.6541 6.92803 72.7696 6.76042 72.8473 6.5483C72.9268 6.33428 72.9666 6.09091 72.9666 5.81818C72.9666 5.54735 72.9278 5.30682 72.8501 5.09659C72.7725 4.88636 72.657 4.72159 72.5036 4.60227C72.3501 4.48295 72.1589 4.4233 71.9297 4.4233C71.71 4.4233 71.5234 4.48106 71.37 4.59659C71.2166 4.71212 71.1001 4.87405 71.0206 5.08239C70.9429 5.29072 70.9041 5.53598 70.9041 5.81818ZM76.1513 8.08807C75.8748 8.08807 75.6257 8.03883 75.4041 7.94034C75.1844 7.83996 75.0102 7.69223 74.8814 7.49716C74.7545 7.30208 74.6911 7.06155 74.6911 6.77557C74.6911 6.52936 74.7365 6.32576 74.8274 6.16477C74.9183 6.00379 75.0424 5.875 75.1996 5.77841C75.3568 5.68182 75.5339 5.6089 75.7308 5.55966C75.9297 5.50852 76.1352 5.47159 76.3473 5.44886C76.603 5.42235 76.8104 5.39867 76.9695 5.37784C77.1286 5.35511 77.2441 5.32102 77.3161 5.27557C77.3899 5.22822 77.4268 5.1553 77.4268 5.05682V5.03977C77.4268 4.82576 77.3634 4.66004 77.2365 4.54261C77.1096 4.42519 76.9268 4.36648 76.6882 4.36648C76.4363 4.36648 76.2365 4.4214 76.0888 4.53125C75.9429 4.6411 75.8445 4.77083 75.7933 4.92045L74.8331 4.78409C74.9089 4.51894 75.0339 4.29735 75.2081 4.11932C75.3823 3.93939 75.5954 3.80492 75.8473 3.71591C76.0992 3.625 76.3776 3.57955 76.6825 3.57955C76.8928 3.57955 77.102 3.60417 77.3104 3.65341C77.5187 3.70265 77.709 3.78409 77.8814 3.89773C78.0537 4.00947 78.192 4.16193 78.2962 4.35511C78.4022 4.5483 78.4553 4.78977 78.4553 5.07955V8H77.4666V7.40057H77.4325C77.37 7.52178 77.282 7.63542 77.1683 7.74148C77.0566 7.84564 76.9155 7.92992 76.745 7.99432C76.5765 8.05682 76.3786 8.08807 76.1513 8.08807ZM76.4183 7.33239C76.6248 7.33239 76.8037 7.29167 76.9553 7.21023C77.1068 7.12689 77.2232 7.01705 77.3047 6.88068C77.388 6.74432 77.4297 6.59564 77.4297 6.43466V5.92045C77.3975 5.94697 77.3426 5.97159 77.2649 5.99432C77.1892 6.01705 77.1039 6.03693 77.0092 6.05398C76.9145 6.07102 76.8208 6.08617 76.728 6.09943C76.6352 6.11269 76.5547 6.12405 76.4865 6.13352C76.3331 6.15436 76.1958 6.18845 76.0746 6.2358C75.9534 6.28314 75.8577 6.34943 75.7876 6.43466C75.7176 6.51799 75.6825 6.62595 75.6825 6.75852C75.6825 6.94792 75.7517 7.09091 75.8899 7.1875C76.0282 7.28409 76.2043 7.33239 76.4183 7.33239ZM81.6683 3.63636V4.43182H79.1598V3.63636H81.6683ZM79.7791 2.59091H80.8075V6.6875C80.8075 6.82576 80.8284 6.93182 80.87 7.00568C80.9136 7.07765 80.9704 7.12689 81.0405 7.15341C81.1106 7.17992 81.1882 7.19318 81.2734 7.19318C81.3378 7.19318 81.3965 7.18845 81.4496 7.17898C81.5045 7.16951 81.5462 7.16098 81.5746 7.15341L81.7479 7.95739C81.6929 7.97633 81.6143 7.99716 81.5121 8.01989C81.4117 8.04261 81.2886 8.05587 81.1428 8.05966C80.8852 8.06723 80.6532 8.02841 80.4467 7.94318C80.2403 7.85606 80.0765 7.72159 79.9553 7.53977C79.8359 7.35795 79.7772 7.13068 79.7791 6.85795V2.59091ZM84.3849 8.08523C83.9493 8.08523 83.5753 7.98958 83.2628 7.7983C82.9522 7.60701 82.7126 7.3428 82.544 7.00568C82.3774 6.66667 82.294 6.27652 82.294 5.83523C82.294 5.39205 82.3793 5.00095 82.5497 4.66193C82.7202 4.32102 82.9607 4.05587 83.2713 3.86648C83.5838 3.67519 83.9531 3.57955 84.3793 3.57955C84.7334 3.57955 85.0469 3.64489 85.3196 3.77557C85.5942 3.90436 85.813 4.08712 85.9759 4.32386C86.1387 4.55871 86.2315 4.83333 86.2543 5.14773H85.2713C85.2315 4.9375 85.1368 4.76231 84.9872 4.62216C84.8395 4.48011 84.6416 4.40909 84.3935 4.40909C84.1832 4.40909 83.9986 4.46591 83.8395 4.57955C83.6804 4.69129 83.5563 4.85227 83.4673 5.0625C83.3802 5.27273 83.3366 5.52462 83.3366 5.81818C83.3366 6.11553 83.3802 6.37121 83.4673 6.58523C83.5545 6.79735 83.6766 6.96117 83.8338 7.0767C83.9929 7.19034 84.1795 7.24716 84.3935 7.24716C84.545 7.24716 84.6804 7.21875 84.7997 7.16193C84.9209 7.10322 85.0223 7.01894 85.1037 6.90909C85.1851 6.79924 85.241 6.66572 85.2713 6.50852H86.2543C86.2296 6.81723 86.1387 7.09091 85.9815 7.32955C85.8243 7.56629 85.6103 7.75189 85.3395 7.88636C85.0687 8.01894 84.7505 8.08523 84.3849 8.08523ZM88.1271 5.44318V8H87.0987V2.18182H88.1044V4.37784H88.1555C88.2578 4.13163 88.416 3.9375 88.63 3.79545C88.8459 3.65152 89.1205 3.57955 89.4538 3.57955C89.7569 3.57955 90.0211 3.64299 90.2464 3.76989C90.4718 3.89678 90.6461 4.08239 90.7692 4.3267C90.8942 4.57102 90.9567 4.86932 90.9567 5.22159V8H89.9283V5.38068C89.9283 5.08712 89.8525 4.8589 89.701 4.69602C89.5514 4.53125 89.3411 4.44886 89.0703 4.44886C88.8885 4.44886 88.7256 4.48864 88.5817 4.56818C88.4396 4.64583 88.3279 4.75852 88.2464 4.90625C88.1669 5.05398 88.1271 5.23295 88.1271 5.44318Z" fill="#2D2F33" style="fill:#2D2F33;fill:color(display-p3 0.1765 0.1843 0.2000);fill-opacity:1;"/>
</g>
<defs>
<clipPath id="clip0_566_8217">
<rect width="6" height="6" fill="white" style="fill:white;fill-opacity:1;" transform="translate(48 2.5)"/>
</clipPath>
</defs>
</svg>
